Coordinates
version=1
nRows=17
nColumns=40
inDegrees=yes

Units are S.I. units (second, meters, Newtons, ...)
Angles are in degrees.

endheader
time	pelvis_tilt	pelvis_list	pelvis_rotation	pelvis_tx	pelvis_ty	pelvis_tz	hip_flexion_r	hip_adduction_r	hip_rotation_r	knee_angle_r	knee_angle_r_beta	ankle_angle_r	subtalar_angle_r	mtp_angle_r	hip_flexion_l	hip_adduction_l	hip_rotation_l	knee_angle_l	knee_angle_l_beta	ankle_angle_l	subtalar_angle_l	mtp_angle_l	lumbar_extension	lumbar_bending	lumbar_rotation	arm_flex_r	arm_add_r	arm_rot_r	elbow_flex_r	pro_sup_r	wrist_flex_r	wrist_dev_r	arm_flex_l	arm_add_l	arm_rot_l	elbow_flex_l	pro_sup_l	wrist_flex_l	wrist_dev_l
     54.46000000	     -3.14039346	     -3.97900796	      1.28818555	      0.81977431	      0.92388682	      0.47639280	     20.03481061	      0.75961346	    -14.04872340	     21.98656262	     21.98656262	      6.65610847	     -7.19593143	     -5.12745981	      8.03305212	     -8.54449885	     -3.82368414	     40.68296251	     40.68296251	     13.41439600	    -14.25869027	     -7.49873368	     -8.25886865	      6.67902079	      1.22724881	      2.42370575	    -12.28492539	     -4.73762125	     27.61334715	     46.21610684	      0.00000000	      0.00000000	     10.66319661	    -11.51571471	    -13.84408939	     47.03364941	     46.72864335	      0.00000000	      0.00000000
     54.47342857	     -3.03710803	     -4.20969054	      1.55671735	      0.81991296	      0.92477779	      0.47853263	     19.13479245	      1.09850004	    -14.67920254	     21.44746673	     21.44746673	      6.96572467	     -6.49329805	     -5.28085637	     10.04348728	     -9.13031030	     -3.00729232	     44.71835232	     44.71835232	     11.79118903	    -15.44652411	     -7.12090866	     -8.28393760	      6.97087293	      1.26033325	      4.40475276	    -12.39111395	     -4.92810358	     28.66462755	     46.20360605	      0.00000000	      0.00000000	      9.33843915	    -10.90937622	    -13.41216076	     45.70720253	     46.65983655	      0.00000000	      0.00000000
     54.48685714	     -2.91868601	     -4.45393624	      1.79746475	      0.81980283	      0.92560790	      0.48061728	     18.24569873	      1.45211325	    -15.31043171	     20.93311651	     20.93311651	      7.27128434	     -5.71044522	     -5.44193003	     12.06252789	     -9.71076420	     -2.27443245	     48.51463280	     48.51463280	     10.33088389	    -16.39739386	     -6.38333424	     -8.34922572	      7.29746445	      1.43866082	      6.45259018	    -12.63262284	     -5.08720624	     29.68539937	     46.18985314	      0.00000000	      0.00000000	      8.20771286	    -10.28576012	    -12.95150920	     44.30372352	     46.58869058	      0.00000000	      0.00000000
     54.50028571	     -2.89025713	     -4.52116072	      2.02645751	      0.81945421	      0.92647233	      0.48236644	     17.44037353	      1.49810573	    -16.36297619	     20.41719216	     20.41719216	      7.53598430	     -4.09578456	     -5.71133164	     14.34295124	     -9.94130472	     -1.48448002	     52.40700380	     52.40700380	     11.38564116	    -16.11108056	      0.42135606	     -8.30055963	      7.44738619	      2.07677621	      7.94634811	    -12.94879047	     -5.75501199	     31.49842635	     46.16705804	      0.00000000	      0.00000000	      8.36295894	     -9.84584931	    -10.63686538	     39.68079584	     46.31500025	      0.00000000	      0.00000000
     54.51371429	     -2.81146470	     -4.67493591	      2.22380987	      0.81900174	      0.92727763	      0.48416266	     16.59952595	      1.73091765	    -17.09471214	     19.88225793	     19.88225793	      7.80009201	     -2.98586216	     -5.73942400	     16.31775192	    -10.36465817	     -0.99276433	     55.35198813	     55.35198813	     10.79691759	    -16.54272375	      2.51135295	     -8.37129172	      7.64724651	      2.14613649	     10.02653414	    -13.10379232	     -6.09263067	     32.98469925	     46.13970854	      0.00000000	      0.00000000	      7.19039777	     -9.40131371	     -9.75381102	     38.00391147	     46.19285526	      0.00000000	      0.00000000
     54.52714286	     -2.77623629	     -4.82162992	      2.36195247	      0.81835259	      0.92806711	      0.48586024	     15.86096724	      1.95179557	    -17.78412919	     19.42395854	     19.42395854	      8.04242333	     -1.88085963	     -5.52566925	     18.31885476	    -10.77001866	     -0.62553603	     57.87805356	     57.87805356	     11.10042138	    -16.62461685	      6.16380338	     -8.40618336	      7.84028412	      2.74352839	     11.80236706	    -13.52758876	     -6.36843155	     34.50663897	     46.09826379	      0.00000000	      0.00000000	      6.54369288	     -8.83826582	     -8.21660488	     35.61393010	     45.99761953	      0.00000000	      0.00000000
     54.54057143	     -2.74820160	     -5.03694446	      2.49795349	      0.81761485	      0.92885919	      0.48753046	     15.09401217	      2.33713278	    -18.16973304	     18.81486501	     18.81486501	      8.13307098	     -1.25043391	     -5.41508776	     20.11178310	    -11.30654734	     -0.42380778	     59.51105317	     59.51105317	     10.44914845	    -17.00571510	      6.61357668	     -8.45902822	      8.10514494	      2.91213823	     13.99999168	    -13.73714373	     -6.50711167	     35.72753055	     46.07213490	      0.00000000	      0.00000000	      5.18812250	     -8.28973749	     -7.84261822	     34.56545359	     45.92882716	      0.00000000	      0.00000000
     54.55400000	     -2.66370417	     -5.03368820	      2.58232971	      0.81684938	      0.92982422	      0.48894554	     14.32578079	      2.38586807	    -18.83601618	     18.40457244	     18.40457244	      8.44737733	      0.02338143	     -5.06522839	     21.68872369	    -11.59634129	     -0.44726112	     60.55627557	     60.55627557	     10.94065553	    -17.05733295	      9.07943823	     -8.57344377	      8.09616358	      3.30819348	     15.89559333	    -14.07902604	     -6.48277885	     37.48667532	     46.00246186	      0.00000000	      0.00000000	      4.43132303	     -7.85668985	     -6.21482921	     32.18620228	     45.71296143	      0.00000000	      0.00000000
     54.56742857	     -2.60533474	     -5.13407153	      2.68407762	      0.81597217	      0.93075282	      0.49030577	     13.55114399	      2.66299439	    -19.06988498	     17.81886641	     17.81886641	      8.51200847	      0.46882080	     -4.90408366	     23.11725399	    -12.01068742	     -0.52770613	     60.79620993	     60.79620993	     10.77922234	    -17.29375000	      9.27536158	     -8.67124177	      8.21103580	      3.42719703	     18.12366891	    -14.21759693	     -6.59653141	     38.77520469	     45.97191126	      0.00000000	      0.00000000	      3.04909482	     -7.35321933	     -5.86352216	     31.25566444	     45.64449373	      0.00000000	      0.00000000
     54.58085714	     -2.61007729	     -5.02481372	      2.69354280	      0.81498246	      0.93160970	      0.49147103	     13.00445820	      2.67250198	    -19.09718294	     17.54793630	     17.54793630	      8.64566532	      0.70159036	     -4.87080301	     24.34808657	    -12.21331735	     -0.88954639	     60.27253967	     60.27253967	     10.79875534	    -17.38988148	      9.38037556	     -8.72050542	      8.06496662	      4.12496401	     20.12593947	    -14.72038532	     -6.70948363	     39.67491547	     45.95677208	      0.00000000	      0.00000000	      1.87790846	     -6.75826283	     -5.68446373	     30.66881396	     45.60028253	      0.00000000	      0.00000000
     54.59428571	     -2.44812886	     -5.06824827	      2.88222250	      0.81415076	      0.93279689	      0.49232410	     11.96164503	      2.88933152	    -19.51903921	     16.68841988	     16.68841988	      8.72558069	      1.52201860	     -4.63648793	     25.26733790	    -12.44782219	     -1.02818769	     59.08576785	     59.08576785	     10.94682141	    -17.48973461	      9.66208733	     -8.89946579	      8.18185620	      3.42945039	     22.58609753	    -14.26991916	     -6.70540890	     41.61995805	     45.89445514	      0.00000000	      0.00000000	      0.34270133	     -6.47153853	     -5.12827358	     29.23625939	     45.49847375	      0.00000000	      0.00000000
     54.60771429	     -2.39973443	     -4.98272407	      3.00593925	      0.81315318	      0.93364552	      0.49295170	     11.23349311	      2.90694394	    -19.77400784	     16.19460432	     16.19460432	      8.91030879	      2.09089039	     -4.48993221	     26.08620609	    -12.50477094	     -1.32471166	     57.28565554	     57.28565554	     11.19364454	    -17.46194194	      9.85023684	     -8.98062916	      8.13605606	      3.45558796	     24.65539773	    -14.34253189	     -6.62118110	     43.33852244	     45.83495343	      0.00000000	      0.00000000	     -0.94246558	     -6.07283786	     -4.50239075	     28.17621556	     45.38672720	      0.00000000	      0.00000000
     54.62114286	     -2.46728472	     -4.86749765	      3.08743809	      0.81199953	      0.93418517	      0.49344355	     10.71888990	      2.89338530	    -19.79258325	     15.83156636	     15.83156636	      9.12425624	      2.27466516	     -4.44936525	     26.84277711	    -12.49651520	     -1.72758020	     54.95608521	     54.95608521	     11.43235668	    -17.33045300	     10.04372984	     -8.91569126	      8.03110694	      3.81057530	     26.65348143	    -14.65696006	     -6.66134320	     44.59500921	     45.80114910	      0.00000000	      0.00000000	     -2.12789918	     -5.58002302	     -4.20226547	     27.55649635	     45.32123991	      0.00000000	      0.00000000
     54.63457143	     -2.33687841	     -4.83945196	      3.27980229	      0.81104293	      0.93494255	      0.49362498	      9.85161056	      2.99601851	    -20.00501824	     15.23689660	     15.23689660	      9.33576863	      2.70123197	     -4.18299324	     27.11607715	    -12.44442135	     -2.00159265	     51.95610198	     51.95610198	     11.26262670	    -17.37608973	      9.29318686	     -9.11714349	      8.12829799	      3.96434332	     27.64455047	    -15.16964837	     -5.62162562	     49.01323485	     45.58575567	      0.00000000	      0.00000000	     -3.30769537	     -5.72502502	     -0.13261684	     26.78197152	     44.69796092	      0.00000000	      0.00000000
     54.64800000	     -2.36063709	     -4.69340437	      3.43155773	      0.80992086	      0.93525479	      0.49368037	      9.21762665	      2.95989594	    -20.05093224	     14.74198350	     14.74198350	      9.56513899	      2.83617939	     -4.22564877	     27.43508331	    -12.18923656	     -2.26096322	     48.71479595	     48.71479595	     11.48242175	    -17.08077199	      9.62117952	     -9.06360425	      7.99659889	      3.81238041	     29.67251948	    -15.06523576	     -5.74417905	     50.45355647	     45.54993593	      0.00000000	      0.00000000	     -4.62306968	     -5.41267533	      0.21836423	     26.30167308	     44.62804813	      0.00000000	      0.00000000
     54.66142857	     -2.38602457	     -4.62278582	      3.61004103	      0.80872486	      0.93536889	      0.49353337	      8.58940642	      3.00246418	    -20.09817345	     14.23831714	     14.23831714	      9.77886914	      2.92320865	     -4.34725596	     27.64151839	    -11.92891057	     -2.45493026	     45.21222477	     45.21222477	     11.61824325	    -16.73629082	      9.90456868	     -9.03384996	      8.00069522	      3.57341856	     31.62953684	    -14.90521760	     -5.77429390	     52.33076747	     45.49408976	      0.00000000	      0.00000000	     -5.92844418	     -5.11702210	      0.65005787	     25.95106278	     44.54378749	      0.00000000	      0.00000000
     54.67485714	     -2.45886977	     -4.54617262	      3.78596790	      0.80753584	      0.93518630	      0.49323165	      8.05321686	      3.01866487	    -20.07038670	     13.81975878	     13.81975878	     10.04025603	      2.90810801	     -4.51275203	     27.79312337	    -11.60250878	     -2.63051501	     41.57639932	     41.57639932	     11.77233797	    -16.17816975	     10.21849184	     -8.92406951	      7.97160001	      3.47735792	     33.42947479	    -14.84366633	     -5.76885918	     54.12989171	     45.43930428	      0.00000000	      0.00000000	     -7.09742808	     -4.85811007	      0.99172738	     25.68886224	     44.47266557	      0.00000000	      0.00000000
